<?xml version="1.0" standalone="no"?>
<!DOCTYPE svg PUBLIC "-//W3C//DTD SVG 20010904//EN"
 "http://www.w3.org/TR/2001/REC-SVG-20010904/DTD/svg10.dtd">
<svg version="1.0" xmlns="http://www.w3.org/2000/svg"
 width="512.000000pt" height="512.000000pt" viewBox="0 0 512.000000 512.000000"
 preserveAspectRatio="xMidYMid meet">
<metadata>
Created by potrace 1.16, written by Peter Selinger 2001-2019
</metadata>
<g transform="translate(0.000000,512.000000) scale(0.100000,-0.100000)"
fill="#000000" stroke="none">
<path d="M2015 4793 c-511 -3 -475 3 -475 -91 0 -101 -49 -92 513 -92 370 0
496 3 505 12 7 7 12 40 12 78 0 79 -16 101 -71 98 -19 -2 -236 -4 -484 -5z
m-255 -83 l0 -60 -30 0 -30 0 0 60 0 60 30 0 30 0 0 -60z m620 1 l0 -59 -122
-7 c-68 -3 -197 -5 -288 -3 l-165 3 -3 63 -3 62 291 0 290 0 0 -59z m98 -3
c-3 -63 -3 -63 -35 -66 l-33 -3 0 65 0 66 35 0 36 0 -3 -62z m29 -30 c-2 -18
-4 -6 -4 27 0 33 2 48 4 33 2 -15 2 -42 0 -60z m-842 32 c3 -5 1 -18 -4 -29
-15 -27 -51 -16 -51 15 0 19 5 24 24 24 14 0 28 -4 31 -10z"/>
<path d="M1858 4693 c23 -2 61 -2 85 0 23 2 4 4 -43 4 -47 0 -66 -2 -42 -4z"/>
<path d="M2072 4693 c37 -2 100 -2 140 0 40 1 10 3 -67 3 -77 0 -110 -1 -73
-3z"/>
<path d="M2986 4785 c-3 -8 -3 -76 1 -152 4 -109 9 -141 21 -150 12 -10 75
-13 238 -13 122 0 229 3 238 6 14 5 16 28 16 153 0 101 -4 151 -12 159 -9 9
-79 12 -254 12 -204 0 -243 -2 -248 -15z m484 -119 c0 -65 -4 -107 -11 -112
-6 -3 -28 2 -50 11 l-39 18 0 74 0 73 35 0 c19 0 35 5 35 11 0 6 -19 9 -47 7
l-48 -3 3 -72 c4 -79 -4 -90 -34 -46 -27 42 -105 123 -118 123 -6 0 -47 -36
-91 -80 -44 -44 -83 -80 -87 -80 -10 0 -11 164 -1 173 3 4 107 7 230 7 l223 0
0 -104z m-258 55 c-8 -4 -12 -12 -11 -17 4 -11 -157 -154 -173 -154 -15 1 172
180 187 180 5 0 4 -4 -3 -9z m32 -38 c10 -10 -156 -173 -176 -173 -34 0 -16
25 70 102 90 80 94 82 106 71z m94 -117 c46 -20 92 -36 102 -36 11 0 20 -4 20
-10 0 -6 -61 -10 -162 -10 l-163 1 55 51 c30 29 46 45 35 37 -19 -13 -19 -13
-6 4 9 11 18 14 25 8 6 -5 48 -25 94 -45z"/>
<path d="M3762 4774 c-130 -64 -186 -221 -126 -347 10 -20 23 -37 31 -37 8 0
5 12 -10 38 -31 51 -31 160 0 218 25 48 85 104 131 123 17 7 32 17 32 22 0 12
1 12 -58 -17z"/>
<path d="M3865 4761 c-6 -11 9 -23 19 -14 9 9 7 23 -3 23 -6 0 -12 -4 -16 -9z"/>
<path d="M530 4714 c-55 -31 -95 -68 -123 -114 -11 -19 -27 -39 -34 -43 -20
-13 -15 -24 13 -30 22 -4 25 -1 21 15 -8 28 68 117 131 153 28 17 51 33 52 38
0 12 -13 8 -60 -19z"/>
<path d="M915 4726 c-40 -17 -82 -67 -95 -114 -7 -22 -10 -108 -8 -217 l3
-179 25 -6 c14 -4 33 -3 43 2 15 8 17 27 17 184 l0 176 29 29 29 29 146 0
c133 0 146 2 156 19 14 28 12 57 -6 75 -21 21 -292 23 -339 2z"/>
<path d="M3980 4716 c0 -9 5 -16 10 -16 6 0 10 4 10 9 0 6 -4 13 -10 16 -5 3
-10 -1 -10 -9z"/>
<path d="M4167 4714 c-4 -4 -7 -48 -7 -97 0 -104 16 -149 61 -167 54 -23 108
-8 224 63 l109 67 12 -29 c28 -66 105 -82 148 -30 40 47 30 101 -24 132 -42
25 -69 21 -106 -18 -18 -19 -36 -35 -40 -35 -3 0 -56 -30 -117 -67 -91 -56
-119 -68 -154 -68 -69 0 -88 27 -88 123 l0 77 105 2 c58 1 111 2 118 2 6 1 12
10 12 21 0 19 -7 20 -109 20 -60 0 -116 2 -123 5 -8 3 -17 2 -21 -1z m519 -87
c47 -41 23 -117 -38 -117 -25 0 -68 44 -68 70 0 24 42 70 64 70 8 0 27 -10 42
-23z"/>
<path d="M4612 4618 c-7 -7 -12 -24 -12 -38 0 -14 5 -31 12 -38 7 -7 24 -12
38 -12 32 0 50 17 50 45 0 43 -60 71 -88 43z m58 -37 c0 -12 -20 -25 -27 -18
-7 7 6 27 18 27 5 0 9 -4 9 -9z"/>
<path d="M4086 4696 c14 -11 16 -18 8 -26 -9 -9 -16 -6 -28 11 -24 35 -32 14
-11 -29 14 -27 20 -32 22 -19 3 9 11 17 18 17 19 0 27 17 20 40 -4 12 -15 20
-28 20 -20 0 -20 0 -1 -14z"/>
<path d="M3800 4667 c-49 -17 -80 -68 -80 -130 0 -44 4 -53 39 -88 21 -22 36
-39 34 -39 -18 0 23 -29 49 -34 37 -7 154 22 140 36 -5 5 -20 4 -36 -2 -15 -5
-48 -9 -74 -9 l-47 2 47 6 c50 7 81 29 104 73 55 106 -60 226 -176 185z m119
-43 c36 -30 49 -81 31 -124 -41 -99 -201 -70 -200 37 1 98 97 148 169 87z"/>
<path d="M3823 4610 c-47 -19 -56 -78 -18 -115 30 -31 65 -32 93 -2 54 57 -3
145 -75 117z m57 -45 c26 -32 -13 -81 -47 -59 -35 22 -23 74 17 74 10 0 23 -7
30 -15z"/>
<path d="M3834 4539 c-10 -17 13 -36 27 -22 12 12 4 33 -11 33 -5 0 -12 -5
-16 -11z"/>
<path d="M1432 4643 c5 -26 38 -29 38 -4 0 15 -6 21 -21 21 -14 0 -19 -5 -17
-17z"/>
<path d="M4030 4618 c0 -9 7 -22 17 -29 15 -13 15 -12 3 11 -17 34 -20 36 -20
18z"/>
<path d="M527 4600 c14 -46 7 -74 -57 -234 -50 -122 -62 -161 -53 -174 15 -25
271 -25 286 -1 8 12 -4 50 -46 153 -32 75 -57 143 -57 151 0 10 -10 15 -31 15
-27 0 -30 2 -19 15 10 12 16 13 27 4 11 -10 13 -7 12 17 -1 16 2 37 6 47 5 12
3 17 -8 17 -8 0 -18 -7 -21 -16 -5 -14 -9 -13 -27 7 l-20 24 8 -25z m99 -246
c29 -71 53 -135 54 -141 0 -10 -30 -13 -120 -13 -98 0 -120 3 -120 15 0 13 81
218 102 258 5 10 14 17 20 15 7 -3 35 -62 64 -134z"/>
<path d="M646 4223 c-6 -14 -5 -15 5 -6 7 7 10 15 7 18 -3 3 -9 -2 -12 -12z"/>
<path d="M4090 4586 c0 -8 5 -18 10 -21 6 -3 10 3 10 14 0 12 -4 21 -10 21 -5
0 -10 -6 -10 -14z"/>
<path d="M746 4547 c8 -56 -6 -81 -56 -103 -22 -10 -40 -24 -40 -31 0 -10 14
-6 49 11 56 29 76 65 66 120 -10 52 -26 55 -19 3z"/>
<path d="M1400 4542 c-33 -34 -37 -59 -15 -101 28 -55 104 -60 139 -9 36 50 3
122 -61 134 -27 5 -37 1 -63 -24z m88 -24 c28 -28 7 -78 -33 -78 -27 0 -45 18
-45 45 0 27 18 45 45 45 12 0 26 -5 33 -12z"/>
<path d="M2717 4542 c-38 -41 -11 -102 44 -102 24 0 55 -22 150 -105 107 -94
159 -125 159 -95 0 6 -7 10 -16 10 -8 0 -66 44 -129 98 l-113 97 5 41 c4 29 1
45 -12 57 -22 22 -68 22 -88 -1z m67 -18 c27 -27 12 -64 -26 -64 -15 0 -38 27
-38 44 0 8 31 36 40 36 5 0 16 -7 24 -16z"/>
<path d="M1854 4526 c-8 -22 0 -82 11 -76 5 3 8 20 6 38 l-3 32 137 0 c88 0
134 4 130 10 -4 6 -62 10 -141 10 -106 0 -136 -3 -140 -14z"/>
<path d="M2170 4530 c0 -5 5 -10 10 -10 6 0 10 5 10 10 0 6 -4 10 -10 10 -5 0
-10 -4 -10 -10z"/>
<path d="M4067 4533 c-4 -3 -7 -17 -7 -30 0 -13 -6 -36 -14 -52 -15 -29 -83
-95 -107 -103 -8 -3 -11 -9 -7 -13 12 -13 87 37 114 77 31 45 49 150 21 121z"/>
<path d="M1624 4454 c-118 -71 -166 -144 -93 -144 27 0 64 -37 105 -106 10
-17 13 -17 29 -4 21 18 65 107 65 134 0 10 -16 34 -35 53 -39 39 -41 45 -21
63 21 17 71 -22 97 -78 35 -72 14 -148 -60 -215 -23 -20 -41 -39 -41 -42 0
-14 24 -1 62 33 116 105 99 254 -38 335 -6 3 -38 -9 -70 -29z m30 -99 c27 -25
27 -45 2 -45 -20 0 -49 37 -43 55 8 20 9 19 41 -10z"/>
<path d="M982 4468 c-8 -8 -12 -45 -12 -99 0 -121 -3 -119 170 -119 167 0 170
2 170 115 0 114 -2 115 -174 115 -97 0 -146 -4 -154 -12z"/>
<path d="M1964 4429 c-10 -17 13 -36 27 -22 12 12 4 33 -11 33 -5 0 -12 -5
-16 -11z"/>
<path d="M4445 4398 c-21 -13 -53 -43 -70 -66 -26 -38 -30 -53 -30 -107 0 -54
4 -70 30 -107 81 -116 242 -115 317 1 26 41 29 53 26 111 -6 112 -72 181 -176
187 -46 3 -65 -1 -97 -19z m151 -27 c79 -36 113 -135 74 -215 -53 -111 -198
-119 -268 -15 -20 29 -23 44 -20 96 3 53 9 68 33 94 56 59 112 71 181 40z"/>
<path d="M4609 4284 c12 -15 21 -41 21 -60 0 -34 14 -52 25 -34 11 18 -5 80
-26 101 -28 28 -44 23 -20 -7z"/>
<path d="M4485 4265 c-14 -13 -25 -36 -25 -50 0 -31 41 -75 70 -75 78 0 107
100 40 135 -40 21 -57 19 -85 -10z"/>
<path d="M2035 4334 c-67 -38 -143 -113 -222 -219 -51 -67 -63 -91 -44 -83 4
2 46 50 92 107 86 107 129 145 212 187 26 13 47 29 47 34 0 17 -22 10 -85 -26z"/>
<path d="M3732 4329 c2 -7 10 -15 17 -17 8 -3 12 1 9 9 -2 7 -10 15 -17 17 -8
3 -12 -1 -9 -9z"/>
<path d="M2207 4324 c-19 -20 27 -24 251 -24 239 0 249 -1 297 -24 28 -13 92
-62 143 -110 80 -74 97 -86 128 -86 49 0 83 20 144 87 87 96 77 93 300 93 201
0 240 4 240 24 0 8 -58 10 -207 8 -115 -1 -219 -5 -232 -8 -13 -3 -63 -43
-112 -90 -116 -112 -127 -112 -236 -10 -159 150 -145 146 -463 146 -135 0
-250 -3 -253 -6z"/>
<path d="M4070 4317 c-14 -7 -31 -25 -39 -41 -12 -25 -11 -33 3 -63 17 -36 54
-56 83 -46 37 13 63 46 63 80 0 31 -28 73 -49 73 -5 0 -15 2 -23 5 -7 3 -24
-1 -38 -8z m58 -74 c3 -19 -1 -23 -22 -23 -21 0 -26 5 -26 26 0 21 4 25 23 22
14 -2 23 -11 25 -25z"/>
<path d="M3769 4291 c10 -7 13 -30 12 -89 -3 -125 -10 -122 254 -122 193 0
215 2 224 18 9 15 12 15 20 2 6 -8 13 -11 17 -7 18 18 -23 22 -244 27 l-237 5
-3 88 -3 87 -27 0 c-20 0 -23 -3 -13 -9z"/>
<path d="M1414 4241 c-40 -17 -64 -60 -64 -113 0 -43 4 -54 30 -78 41 -38 80
-46 125 -24 102 48 80 208 -30 219 -22 3 -50 1 -61 -4z m92 -54 c20 -17 27
-33 27 -57 0 -24 -7 -40 -27 -57 -33 -28 -56 -29 -90 -2 -34 27 -36 82 -4 116
27 29 60 29 94 0z"/>
<path d="M1435 4188 c-27 -15 -35 -28 -35 -59 0 -52 69 -79 103 -41 25 28 21
67 -9 91 -31 24 -32 24 -59 9z"/>
<path d="M2170 4231 c-47 -4 -93 -15 -122 -30 -55 -26 -223 -198 -266 -270
-25 -43 -27 -54 -30 -191 -4 -165 2 -183 58 -183 51 0 60 21 60 146 0 82 -3
108 -12 105 -9 -3 -14 -37 -16 -110 -3 -109 -10 -126 -47 -112 -12 5 -15 30
-15 143 0 126 2 139 25 179 39 68 181 217 236 246 60 33 184 46 463 46 175 0
193 -2 235 -22 61 -29 183 -155 260 -268 58 -84 62 -92 45 -104 -16 -12 -15
-14 9 -20 24 -6 27 -12 27 -45 0 -34 -4 -41 -27 -49 l-28 -10 28 -1 c15 -1 27
-6 27 -12 0 -7 -12 -10 -30 -7 -16 3 -30 1 -30 -4 0 -4 11 -8 25 -8 42 0 28
-19 -17 -23 l-43 -4 48 -1 c34 -2 47 -6 47 -17 0 -12 -13 -15 -56 -15 -34 0
-53 -4 -49 -10 3 -5 28 -10 56 -10 27 0 49 -4 49 -10 0 -5 -16 -10 -35 -10
-47 0 -45 -18 3 -23 34 -3 33 -4 -10 -5 -61 -2 -63 -22 -3 -22 54 0 61 -19 8
-21 -21 -1 -51 -5 -68 -9 -24 -6 -18 -8 35 -11 l65 -3 -52 -3 c-68 -5 -69 -23
-2 -23 36 0 49 -4 47 -12 -3 -9 -39 -14 -120 -16 l-115 -3 -39 52 c-70 94 -70
94 -278 97 l-182 3 -10 31 c-12 42 -35 55 -68 40 -24 -11 -26 -16 -26 -81 l0
-69 -67 -4 c-43 -3 -71 -1 -75 6 -14 21 -9 384 6 420 30 71 148 153 254 175
73 15 204 14 285 -4 96 -20 191 -70 264 -139 66 -61 81 -59 36 6 -31 46 -136
117 -213 146 -73 26 -220 45 -295 37 -128 -13 -218 -50 -293 -118 -76 -71 -82
-91 -82 -328 l0 -205 -35 -17 c-62 -29 -75 -65 -75 -202 0 -161 -1 -162 -61
-167 -80 -8 -122 -62 -150 -193 -13 -63 -29 -95 -29 -57 0 12 -22 91 -50 174
-27 83 -50 156 -50 160 0 5 17 17 38 26 36 16 36 16 10 20 -34 4 -64 -11 -70
-36 -3 -11 17 -95 45 -186 l50 -168 -13 -97 c-11 -88 -11 -101 4 -133 18 -37
65 -68 104 -68 10 0 33 5 51 11 17 6 47 8 66 5 l34 -7 -16 -46 c-15 -43 -15
-49 0 -76 23 -39 22 -41 -20 -69 -21 -14 -71 -53 -112 -87 -67 -56 -75 -60
-90 -47 -15 14 -21 13 -56 -9 -51 -31 -55 -31 -55 5 0 23 -7 35 -32 50 -49 30
-58 23 -16 -11 44 -36 41 -56 -4 -33 -22 11 -33 13 -41 5 -8 -8 -6 -11 6 -11
27 0 77 -29 77 -44 0 -7 -6 -19 -14 -25 -8 -7 -18 -26 -21 -42 -4 -16 -11 -29
-16 -29 -4 0 -16 -15 -24 -32 l-16 -33 24 28 24 29 34 -34 c18 -18 42 -51 53
-73 13 -28 20 -35 23 -23 2 9 -1 26 -6 37 -15 27 -14 41 4 41 40 0 72 79 47
116 -13 20 -52 35 -72 29 -33 -11 -22 3 18 24 l39 20 31 -45 c26 -36 37 -44
62 -44 18 0 29 4 25 10 -3 6 -12 10 -19 10 -7 0 -20 8 -29 18 -15 16 -8 23
105 112 67 52 125 97 130 98 15 7 111 -82 124 -115 11 -26 21 -33 51 -38 70
-11 78 -14 128 -47 l50 -33 -236 -3 c-222 -2 -237 -4 -254 -22 -17 -19 -18
-40 -16 -230 l2 -210 -53 0 c-30 0 -59 5 -66 12 -7 7 -12 43 -12 90 0 151 -25
168 -244 168 -143 0 -156 1 -166 19 -5 11 -10 72 -10 136 0 114 1 117 28 145
32 32 122 51 146 31 11 -9 18 -8 31 5 24 25 12 74 -36 144 -21 31 -51 84 -66
116 l-27 59 -4 348 c-2 232 0 365 8 400 6 28 33 97 61 153 35 70 52 118 56
156 5 52 8 56 34 62 15 3 43 19 61 35 28 25 33 36 33 76 0 39 -5 51 -28 71
-37 31 -71 39 -107 24 -61 -25 -82 -105 -42 -159 17 -23 22 -44 22 -88 0 -50
-8 -74 -57 -178 l-58 -120 -3 -384 c-2 -330 0 -391 13 -432 17 -49 87 -166
111 -184 19 -14 13 -92 -7 -85 -29 10 -96 2 -128 -14 -52 -27 -62 -65 -59
-224 l3 -137 170 -5 c224 -7 225 -7 225 -125 0 -84 11 -133 33 -147 7 -4 40
-8 73 -8 l62 0 7 -75 c10 -115 11 -114 -97 -110 -50 3 -92 6 -95 8 -2 3 -5 74
-8 158 -2 85 -4 167 -4 182 -1 28 -1 28 -63 25 l-63 -3 -5 -130 -5 -129 -120
108 c-66 60 -131 119 -145 133 l-25 23 -5 288 -5 287 -29 53 c-51 91 -67 97
-254 94 -66 -1 -101 -6 -97 -12 4 -6 60 -10 134 -10 l129 0 35 -39 c19 -21 39
-54 45 -72 9 -29 23 -219 16 -219 -1 0 -12 15 -23 33 -28 45 -67 87 -82 87 -7
0 1 -15 17 -32 17 -18 43 -53 59 -77 27 -44 28 -49 32 -210 2 -92 9 -176 15
-189 7 -12 78 -83 160 -158 l148 -135 0 -312 c0 -354 2 -363 80 -429 64 -55
98 -68 184 -68 l76 0 0 -78 c0 -119 5 -122 180 -122 188 0 180 -10 180 232 0
238 -12 262 -142 280 -40 5 -94 19 -120 30 -51 22 -114 83 -123 120 -11 44 -1
231 13 236 9 3 12 -18 12 -80 1 -128 44 -199 155 -250 50 -23 50 -23 530 -23
519 0 555 3 630 52 22 15 66 51 98 82 56 53 58 54 52 26 -11 -47 -52 -112 -88
-139 -81 -62 -198 -88 -297 -67 -46 10 -57 9 -88 -7 -67 -34 -73 -61 -70 -287
3 -229 11 -257 81 -303 40 -27 43 -27 246 -30 296 -5 326 11 326 165 0 45 3
85 7 88 4 4 -4 29 -17 56 -18 35 -25 64 -25 108 0 33 -3 61 -7 63 -5 2 -89 1
-188 -2 -165 -5 -183 -7 -211 -27 -46 -33 -55 -65 -52 -183 l3 -105 62 -3 c81
-4 97 -21 58 -62 -52 -54 -19 -42 56 21 41 34 76 65 77 70 7 17 -11 9 -46 -22
l-36 -32 -23 27 -22 26 100 90 c66 60 108 90 124 90 38 0 55 11 55 34 0 11 5
28 10 36 7 11 10 5 10 -25 0 -22 9 -60 20 -84 22 -49 27 -160 10 -223 -19 -66
-28 -68 -276 -68 -209 0 -223 1 -248 21 -52 41 -56 61 -56 283 l0 204 32 27
c24 20 37 25 57 19 95 -25 176 -22 257 12 112 46 204 156 204 244 l0 45 335
333 c282 279 341 332 365 332 16 0 30 -7 34 -16 3 -8 10 -13 15 -9 17 10 1 32
-30 46 -28 11 -34 9 -69 -17 -22 -16 -89 -75 -148 -131 -60 -57 -112 -100
-116 -96 -9 9 -7 1161 2 1167 11 7 2 226 -10 249 -7 14 -22 17 -76 17 -67 0
-92 -10 -92 -37 0 -7 8 -13 19 -13 26 0 39 -91 16 -122 -10 -16 -15 -47 -15
-105 l0 -83 -35 0 c-24 0 -35 -5 -35 -15 0 -10 11 -15 35 -15 l35 0 0 -69 c0
-52 -4 -70 -15 -75 -12 -4 -15 -30 -15 -147 l0 -141 -31 6 c-17 3 -36 6 -40 6
-5 0 0 18 11 40 11 21 20 42 20 45 0 10 -24 5 -40 -10 -16 -14 -19 -11 -36 37
-16 45 -23 53 -44 53 -24 0 -25 -3 -28 -70 -3 -92 -9 -115 -29 -115 -50 0
-123 -60 -123 -101 0 -6 69 -8 183 -7 l182 3 3 193 c2 161 5 192 17 192 13 0
15 27 15 169 0 93 3 176 6 185 4 12 20 16 55 16 48 0 49 -1 49 -29 0 -20 -6
-32 -18 -35 -16 -6 -17 -41 -17 -617 l0 -611 -68 -64 c-86 -82 -97 -82 -97 -5
0 59 0 60 52 105 l51 45 -31 36 c-26 29 -32 44 -32 81 0 25 -5 54 -10 64 -7
13 -7 21 0 25 13 8 13 81 0 106 -8 13 -21 19 -45 19 -28 0 -37 -6 -49 -29 -9
-16 -24 -31 -36 -34 -16 -4 -20 -13 -20 -44 -1 -21 -7 -49 -15 -63 -10 -17
-14 -57 -15 -121 0 -60 -4 -99 -12 -107 -8 -8 -46 -12 -105 -12 l-93 0 0 137
c0 133 1 138 25 163 39 41 43 89 10 128 l-26 32 -182 2 -181 3 127 104 c101
84 131 114 148 151 14 31 39 61 75 89 32 25 57 53 61 69 3 15 15 33 26 41 16
11 18 22 14 67 -6 65 11 89 32 43 22 -49 40 -48 88 5 29 32 48 66 59 104 42
144 -42 314 -147 298 -35 -6 -37 -4 -53 34 -11 27 -16 71 -16 131 l0 91 -44
45 -45 45 2 154 c1 136 3 154 18 154 47 0 54 76 13 142 -55 90 -70 108 -86
108 -23 0 -23 -2 7 -46 29 -42 41 -81 30 -92 -4 -4 -9 -2 -11 3 -14 38 -97
147 -167 218 -101 103 -161 144 -228 157 -56 11 -396 11 -519 1z m-664 -389
c31 -21 21 -82 -14 -82 -26 0 -42 20 -42 51 0 33 29 49 56 31z m1641 -46 c-4
-9 -11 -16 -17 -16 -11 0 -14 33 -3 44 11 10 26 -11 20 -28z m-862 -423 l-6
-53 -89 0 c-107 0 -127 -12 -141 -85 -5 -27 -18 -58 -29 -70 -16 -17 -20 -35
-20 -83 0 -55 -2 -62 -20 -62 -17 0 -20 7 -20 53 0 34 7 66 21 92 18 32 20 49
15 98 -8 68 5 116 36 137 16 10 59 17 133 20 l110 5 5 80 4 80 4 -80 c2 -44 0
-104 -3 -132z m377 137 c48 -14 90 -49 122 -105 l27 -44 151 -3 c149 -3 151
-3 170 -29 14 -19 18 -38 16 -75 -3 -36 -6 -44 -11 -29 -17 41 -24 49 -63 69
-36 19 -62 21 -301 26 -260 5 -262 5 -290 30 -75 65 -153 146 -153 157 0 16
276 18 332 3z m-156 -216 c25 -10 85 -14 231 -14 230 0 252 -6 290 -81 12 -24
26 -48 30 -54 64 -80 65 -85 23 -85 l-30 0 0 -116 c0 -114 0 -116 -29 -145
-20 -19 -40 -29 -60 -29 l-30 0 15 35 c7 19 14 55 14 80 l0 45 -380 0 -380 0
0 -43 c0 -23 9 -59 19 -80 l19 -37 -54 0 -54 0 0 80 0 80 -45 0 -45 0 0 104
c0 78 4 106 15 116 7 6 17 32 21 56 9 63 29 74 135 74 104 0 112 6 117 96 l4
64 70 -66 c39 -36 86 -72 104 -80z m572 -46 c5 -7 13 -24 17 -38 4 -14 23 -42
41 -63 38 -41 42 -52 17 -38 -43 23 -103 109 -103 147 0 9 18 3 28 -8z m120
-217 c3 -16 -2 -21 -17 -21 -15 0 -21 6 -21 24 0 13 -7 29 -15 36 -8 7 -15 17
-15 23 0 18 65 -40 68 -62z m492 59 c0 -5 -16 -10 -35 -10 -24 0 -35 -5 -35
-15 0 -11 11 -15 41 -15 24 0 38 -4 34 -10 -3 -5 -22 -10 -41 -10 -19 0 -34
-4 -34 -10 0 -5 18 -10 40 -10 54 0 51 -20 -2 -21 l-43 -1 38 -8 c55 -10 57
-20 5 -20 -52 0 -58 8 -58 71 0 26 -5 42 -15 45 -33 13 -12 24 45 24 33 0 60
-4 60 -10z m-570 -145 c0 -91 -1 -97 -27 -121 -14 -13 -27 -23 -27 -22 -1 2 0
56 2 121 3 117 3 117 28 117 24 0 24 -1 24 -95z m202 44 c48 -26 65 -157 29
-227 -25 -50 -52 -73 -71 -62 -12 8 -11 13 7 32 33 37 43 63 43 115 0 56 -18
96 -44 101 -33 7 -40 -14 -16 -46 32 -44 21 -114 -25 -158 -18 -17 -35 -39
-37 -50 -3 -15 -11 -18 -36 -16 l-32 3 0 -78 0 -79 -45 -44 -44 -44 2 52 c2
44 -2 55 -27 81 l-30 31 -118 0 c-117 0 -119 0 -128 25 -12 32 -18 31 -30 0
l-10 -26 -142 3 c-141 3 -143 3 -146 26 -4 28 -26 24 -30 -6 -3 -21 -8 -22
-123 -22 -108 0 -121 -2 -140 -21 -17 -17 -20 -29 -16 -63 11 -80 36 -172 61
-226 14 -30 23 -56 21 -58 -12 -12 -33 10 -39 40 -4 25 -30 55 -101 123 -101
96 -121 135 -69 135 14 0 34 5 45 11 19 9 19 17 13 125 -4 62 -3 114 1 114 5
0 19 -9 31 -21 34 -32 86 -39 232 -32 l133 6 61 69 c34 37 69 68 79 68 9 0 45
-31 80 -70 l62 -70 144 0 c137 0 145 1 186 26 23 15 53 37 67 50 19 18 39 24
78 26 52 2 69 15 32 25 -18 5 -19 11 -14 62 4 31 11 62 17 69 12 15 61 16 89
1z m-1386 -16 c15 -25 6 -103 -12 -103 -33 0 6 -38 51 -50 18 -5 20 -16 23
-89 l3 -84 -63 6 c-58 5 -66 9 -100 46 -36 42 -62 116 -54 156 3 11 5 31 5 44
1 37 62 91 103 91 21 0 37 -6 44 -17z m62 -55 c-2 -67 -2 -69 -5 -18 -3 31
-11 62 -20 72 -15 17 -14 18 5 18 21 0 22 -4 20 -72z m1192 42 c0 -11 -7 -20
-15 -20 -8 0 -15 9 -15 20 0 11 7 20 15 20 8 0 15 -9 15 -20z m0 -80 c0 -11
-7 -20 -15 -20 -8 0 -15 9 -15 20 0 11 7 20 15 20 8 0 15 -9 15 -20z m-1405
-180 c27 -29 34 -44 37 -91 l4 -57 -33 -5 c-86 -14 -129 36 -118 137 12 99 41
138 63 83 8 -17 29 -48 47 -67z m1412 -56 c-3 -3 -12 -4 -19 -1 -8 3 -5 6 6 6
11 1 17 -2 13 -5z m18 -34 c0 -7 -6 -15 -12 -17 -8 -3 -13 4 -13 17 0 13 5 20
13 18 6 -3 12 -11 12 -18z m-1203 -2 c9 -24 -4 -38 -33 -38 -22 0 -29 5 -29
19 0 12 8 21 23 24 12 2 25 5 28 6 4 0 9 -5 11 -11z m-82 -23 c0 -14 -4 -25
-10 -25 -5 0 -10 11 -10 25 0 14 5 25 10 25 6 0 10 -11 10 -25z m-50 5 c0 -5
-2 -10 -4 -10 -3 0 -8 5 -11 10 -3 6 -1 10 4 10 6 0 11 -4 11 -10z m660 -34
c0 -11 -20 -15 -83 -17 -81 -4 -86 -6 -138 -46 -73 -56 -98 -61 -137 -28 -34
28 -43 70 -20 93 19 19 378 17 378 -2z m428 -17 c3 -28 -45 -89 -70 -89 -8 0
-41 20 -72 45 -54 42 -63 45 -117 45 -54 0 -76 11 -46 24 6 2 77 4 157 3 l145
-2 3 -26z m59 -95 c-7 -92 -7 -92 -185 -235 l-124 -99 -168 0 -169 0 -76 61
c-65 51 -81 70 -106 126 -16 36 -32 77 -36 92 -6 26 -6 26 20 -5 33 -39 84
-64 129 -64 30 0 36 -4 46 -34 17 -48 35 -60 61 -44 28 17 35 5 23 -41 -5 -22
-7 -42 -4 -45 10 -11 40 15 81 69 25 33 49 55 61 55 11 0 33 -21 57 -57 50
-74 65 -79 57 -19 -7 50 7 62 32 29 13 -17 15 -17 30 2 8 11 18 32 20 46 6 24
8 25 63 21 41 -3 67 1 89 12 34 18 38 34 19 79 -11 27 -9 32 32 78 25 27 47
49 49 49 3 0 2 -34 -1 -76z m-387 40 c0 -2 -13 -4 -30 -4 -20 0 -30 5 -30 14
0 12 6 13 30 5 17 -6 30 -13 30 -15z m740 -66 c0 -24 3 -29 9 -19 8 12 11 9
17 -13 5 -19 2 -31 -7 -37 -31 -19 -39 -10 -39 46 0 30 5 55 10 55 6 0 10 -15
10 -32z m-1364 -24 c97 -83 114 -103 113 -137 l-1 -32 -9 30 c-5 18 -42 61
-91 107 -90 84 -98 106 -12 32z m642 30 c12 -8 22 -19 22 -25 0 -5 -51 -9
-120 -9 -105 0 -119 2 -113 16 9 24 41 33 118 33 49 1 78 -4 93 -15z m834
-161 c41 -37 25 -43 -119 -43 -145 0 -154 5 -68 38 64 26 162 28 187 5z
m-1836 -158 c35 -53 -9 -99 -73 -78 -31 11 -42 48 -23 83 16 30 74 28 96 -5z
m1027 -55 c9 -35 -14 -41 -149 -38 l-129 3 -3 28 -3 27 139 0 c130 0 140 -1
145 -20z m-323 -5 c0 -13 -35 -15 -255 -15 -229 0 -287 6 -242 23 6 3 121 6
255 6 209 1 242 -1 242 -14z m774 9 c46 -18 -4 -24 -194 -24 -180 0 -210 2
-210 15 0 13 28 15 194 15 107 0 201 -3 210 -6z m380 -30 c16 -42 -3 -108 -28
-98 -21 8 -40 82 -25 100 15 19 45 18 53 -2z m-1444 -94 c-33 -44 -65 -80 -70
-80 -13 0 -130 133 -130 147 0 10 32 13 130 13 l131 0 -61 -80z m1070 67 c0
-7 -33 -42 -72 -77 -112 -100 -105 -96 -129 -74 -22 20 -109 137 -109 147 0 4
48 8 108 10 59 1 128 4 155 5 32 1 47 -2 47 -11z m-876 -203 c55 -97 112 -195
127 -218 33 -48 29 -55 -45 -80 -73 -24 -76 -22 -76 28 0 33 -7 52 -26 75
l-26 31 -119 0 c-107 0 -119 -2 -129 -19 -6 -11 -10 -87 -9 -178 0 -261 2
-263 272 -263 l177 0 0 -55 0 -55 -165 0 c-90 0 -187 5 -215 11 -64 14 -127
61 -157 118 -23 44 -23 47 -23 405 l0 360 73 -72 c40 -39 78 -72 84 -72 6 0
41 36 77 80 37 44 70 80 74 80 4 0 52 -79 106 -176z m411 163 c29 -2 28 -3
-34 -49 -36 -26 -79 -52 -97 -58 -41 -14 -71 0 -144 67 l-52 48 149 -3 c81 -1
162 -4 178 -5z m755 -7 c0 -11 -4 -20 -10 -20 -5 0 -10 9 -10 20 0 11 5 20 10
20 6 0 10 -9 10 -20z m-575 -52 l49 -61 -34 -26 c-19 -14 -82 -63 -140 -108
-58 -45 -126 -94 -152 -108 l-48 -26 0 113 0 113 64 34 c35 18 92 55 127 82
35 26 69 48 75 48 6 1 33 -27 59 -61z m-563 34 c20 -9 75 -44 122 -77 l85 -60
0 -116 c1 -95 -2 -119 -15 -130 -11 -9 -20 -10 -32 -2 -16 9 -232 378 -232
395 0 13 33 9 72 -10z m818 -423 l-1 -390 -32 -20 c-56 -34 -101 -40 -289 -37
l-182 3 84 72 c75 64 86 71 100 58 12 -11 43 -15 118 -15 88 0 103 2 111 19 6
10 11 103 12 207 1 186 1 188 -22 207 -20 16 -37 18 -111 15 -133 -5 -132 -3
-138 -227 l-5 -179 -98 -81 c-54 -45 -102 -81 -108 -81 -5 0 -9 94 -9 234 l0
233 115 57 c120 60 276 166 384 260 36 31 66 56 68 56 2 0 3 -176 3 -391z
m368 314 l3 -63 -46 0 -45 0 0 53 c0 61 13 79 55 75 29 -3 30 -4 33 -65z
m-548 -11 c0 -10 -117 -98 -180 -137 -62 -38 -43 -20 75 69 106 81 105 80 105
68z m-1346 -63 c3 -17 6 -116 6 -218 0 -145 4 -198 16 -234 18 -52 73 -107
107 -107 18 0 25 -8 34 -43 16 -58 81 -130 146 -160 33 -16 81 -28 129 -32
117 -11 115 -9 120 -238 2 -158 1 -189 -12 -197 -23 -15 -27 -13 -71 27 -33
30 -76 100 -67 108 2 1 17 10 34 18 42 22 61 67 44 107 -7 17 -20 35 -29 40
-23 12 -150 9 -160 -4 -4 -6 -11 -29 -14 -51 -4 -22 -14 -46 -24 -52 -18 -14
-94 -17 -155 -7 -43 7 -124 70 -155 122 -23 37 -23 38 -23 488 0 248 3 454 7
457 3 4 19 7 33 7 23 0 29 -5 34 -31z m635 -156 c16 -14 21 -31 23 -83 l3 -65
50 -3 c28 -1 65 -4 83 -7 l32 -6 0 -114 0 -115 -189 0 -190 0 -20 26 c-19 25
-21 40 -21 199 0 94 3 175 7 178 3 4 50 7 104 7 78 0 101 -3 118 -17z m1111 8
c0 -5 -7 -11 -15 -15 -10 -3 -15 -19 -15 -46 l0 -41 -77 3 -78 3 -3 53 -3 52
95 0 c53 0 96 -4 96 -9z m-332 -13 c15 -15 17 -340 2 -369 -9 -16 -22 -19 -91
-19 -125 0 -119 -9 -119 192 0 212 -2 208 115 208 50 0 86 -5 93 -12z m-488
-303 l0 -225 -35 0 -35 0 0 194 c0 107 -3 201 -6 210 -4 11 4 20 27 31 19 8
37 14 42 15 4 0 7 -101 7 -225z m804 179 c8 -3 12 -12 9 -20 -11 -28 -183 -13
-183 16 0 11 147 14 174 4z m-149 -50 c13 -6 16 -22 14 -108 -1 -94 -9 -126
-30 -126 -5 0 -9 54 -9 120 0 66 2 120 4 120 2 0 12 -3 21 -6z m-1249 -660
c-4 -19 -11 -32 -17 -28 -10 6 -4 57 9 79 10 16 14 -15 8 -51z m128 24 c29
-48 -42 -111 -84 -73 -22 20 -27 64 -8 83 18 18 79 11 92 -10z m1186 2 c0 -24
-25 -51 -152 -164 -141 -124 -159 -119 -155 46 2 60 6 81 22 98 31 34 51 39
173 39 105 1 112 0 112 -19z m-1291 -94 c18 -19 22 -33 19 -77 l-3 -54 -50 0
-50 0 -3 65 c-3 64 -2 66 25 77 39 15 37 16 62 -11z m105 -178 c-7 -10 -51
-10 -57 0 -3 4 -2 22 1 41 l5 34 28 -34 c15 -18 25 -37 23 -41z m-84 2 c0 -13
-70 -13 -90 0 -11 7 0 10 38 10 28 0 52 -4 52 -10z"/>
<path d="M2743 3161 c-43 -11 -83 -38 -83 -56 0 -7 7 -20 15 -29 14 -13 20
-13 61 4 25 11 63 20 85 20 39 0 111 -29 124 -50 10 -16 25 -12 25 8 0 66
-133 126 -227 103z"/>
<path d="M2265 3129 c-44 -22 -74 -55 -75 -81 0 -23 -2 -23 65 12 63 33 100
36 160 15 52 -19 71 -19 79 1 11 28 7 35 -36 54 -57 26 -141 25 -193 -1z"/>
<path d="M2754 3041 c-43 -26 -54 -44 -19 -31 38 15 120 12 160 -5 33 -13 35
-13 25 4 -11 21 -78 51 -113 51 -12 0 -36 -9 -53 -19z"/>
<path d="M2298 3024 c-31 -16 -40 -41 -10 -28 9 4 46 10 82 13 l65 6 -34 13
c-44 16 -69 15 -103 -4z"/>
<path d="M1852 2925 c-40 -51 -37 -151 6 -199 24 -26 68 -47 86 -40 24 9 19
18 -14 31 -67 25 -84 174 -24 202 14 6 22 16 19 21 -12 19 -53 10 -73 -15z"/>
<path d="M1694 2686 c-10 -25 0 -48 29 -70 21 -16 32 -18 45 -10 24 15 27 52
6 75 -20 22 -72 25 -80 5z m70 -15 c19 -21 12 -51 -14 -51 -20 0 -43 23 -33
33 3 4 15 7 27 7 16 0 17 3 8 12 -10 10 -17 10 -32 0 -17 -10 -20 -10 -20 3 0
21 43 19 64 -4z"/>
<path d="M1652 968 c-7 -7 -12 -37 -12 -68 0 -31 5 -61 12 -68 7 -7 40 -12 80
-12 77 0 88 10 88 80 0 70 -11 80 -88 80 -40 0 -73 -5 -80 -12z m136 -65 l3
-53 -60 0 -61 0 0 48 c0 27 3 52 7 56 4 4 30 6 58 4 l50 -3 3 -52z"/>
<path d="M3918 4233 c12 -2 30 -2 40 0 9 3 -1 5 -23 4 -22 0 -30 -2 -17 -4z"/>
<path d="M3331 4214 c-13 -10 -21 -12 -17 -6 4 7 3 12 -3 12 -5 0 -14 -15 -20
-33 -12 -36 0 -95 21 -109 7 -4 57 -8 111 -8 92 0 97 1 97 21 0 17 -4 20 -22
15 -13 -4 -39 -9 -58 -13 l-35 -5 35 31 c42 37 68 45 115 37 28 -6 35 -4 35 9
0 12 -12 15 -53 15 -47 0 -60 -5 -108 -40 -57 -44 -93 -49 -113 -17 -8 13 -7
24 4 45 l16 27 172 3 172 2 0 -91 c0 -87 1 -92 29 -120 21 -21 39 -29 63 -28
l33 0 -41 19 c-23 10 -44 26 -48 36 -4 11 -7 55 -7 100 1 45 -1 88 -4 96 -5
13 -34 16 -178 17 -148 1 -175 -1 -196 -15z"/>
<path d="M1199 4163 c-1 -4 0 -44 1 -88 2 -107 11 -117 104 -113 44 2 71 7 74
16 3 9 -14 12 -61 12 -41 0 -69 5 -75 13 -6 7 -12 46 -14 87 -2 48 -7 75 -15
78 -7 2 -13 0 -14 -5z"/>
<path d="M1047 4103 c-11 -10 -8 -23 5 -23 7 0 36 -23 65 -52 66 -65 70 -46 6
28 -46 52 -62 62 -76 47z"/>
<path d="M464 4080 c-54 -22 -54 -19 -54 -494 l0 -440 55 -51 c30 -29 55 -58
55 -66 0 -9 9 -25 21 -37 20 -22 23 -22 292 -20 l272 3 5 110 c4 97 8 115 32
156 54 89 68 150 68 290 l0 127 30 25 c16 14 35 27 42 29 9 3 8 13 -5 40 -20
41 -22 80 -6 110 14 27 1 38 -17 14 -18 -26 -18 -106 1 -132 13 -19 12 -22
-11 -33 -35 -16 -34 -17 -34 40 0 74 -21 109 -129 211 -145 137 -119 128 -376
127 -121 0 -230 -4 -241 -9z m579 -114 c136 -123 146 -140 145 -241 0 -44 0
-131 1 -193 2 -119 -13 -188 -59 -272 l-19 -35 -1 260 c0 144 -5 276 -10 297
-8 27 -29 52 -82 97 -104 88 -113 91 -277 91 -78 0 -141 -4 -141 -9 0 -5 64
-10 143 -13 133 -4 147 -6 188 -30 24 -15 68 -50 97 -79 52 -51 52 -52 52
-115 l0 -64 -260 0 c-155 0 -260 4 -260 9 0 5 4 21 10 35 l10 26 140 0 c133 0
140 1 140 20 0 19 -7 20 -175 20 -162 0 -175 -1 -185 -19 -6 -12 -10 -132 -10
-318 0 -258 2 -302 16 -321 28 -40 6 -37 -36 5 l-40 41 0 431 c0 418 1 432 20
451 19 19 33 20 254 20 l235 0 104 -94z m35 -378 l3 -48 -215 0 -216 0 0 45 0
44 123 4 c67 2 163 3 212 3 l90 -1 3 -47z m-456 -15 c2 -43 7 -58 18 -59 8 -1
111 -2 228 -3 l212 -1 0 -255 0 -255 -250 0 c-236 0 -250 1 -260 19 -6 12 -10
131 -10 315 l0 296 30 0 c28 0 29 -1 32 -57z"/>
<path d="M725 3481 c-77 -35 -105 -85 -105 -185 0 -115 45 -197 133 -241 54
-27 108 -32 154 -14 52 19 104 62 131 108 66 112 5 283 -120 335 -51 22 -143
20 -193 -3z m226 -95 c154 -102 59 -334 -127 -313 -134 15 -208 169 -131 271
14 18 45 43 69 55 56 29 133 23 189 -13z"/>
<path d="M753 3374 c-51 -34 -76 -76 -76 -129 0 -126 153 -204 260 -133 101
67 97 215 -8 268 -56 29 -125 26 -176 -6z m138 -62 c31 -26 31 -78 0 -104 -48
-38 -111 -11 -111 47 0 63 63 95 111 57z"/>
<path d="M1045 3030 c3 -5 10 -10 16 -10 5 0 9 5 9 10 0 6 -7 10 -16 10 -8 0
-12 -4 -9 -10z"/>
<path d="M3187 4036 c-20 -18 -37 -39 -37 -45 0 -13 28 -97 61 -185 11 -32 27
-56 35 -56 18 0 18 -2 -5 46 -10 21 -31 74 -46 118 l-26 79 37 38 c47 48 32
52 -19 5z"/>
<path d="M2285 4001 c-65 -30 -116 -75 -142 -125 -21 -38 -31 -222 -14 -239 8
-8 11 13 11 80 0 49 5 105 11 124 25 74 91 134 177 160 23 7 42 16 42 21 0 14
-23 9 -85 -21z"/>
<path d="M1663 3969 c-52 -39 -70 -59 -35 -40 21 12 99 80 92 80 -3 1 -29 -17
-57 -40z"/>
<path d="M2430 4000 c0 -5 20 -10 45 -10 25 0 45 5 45 10 0 6 -20 10 -45 10
-25 0 -45 -4 -45 -10z"/>
<path d="M4194 3963 c-232 -3 -304 -6 -313 -16 -16 -20 -18 -132 -2 -151 12
-14 44 -16 237 -16 l224 0 0 -64 c0 -92 8 -96 175 -96 89 0 135 -4 143 -12 7
-7 12 -31 12 -55 0 -24 5 -43 10 -43 15 0 12 94 -4 116 -13 17 -31 20 -163 24
l-148 5 -3 63 -3 62 39 0 c31 0 41 -4 45 -20 5 -19 14 -20 140 -20 121 0 137
2 161 21 24 19 26 26 26 94 0 68 -2 75 -26 94 -24 19 -38 21 -138 19 -61 -2
-247 -4 -412 -5z m501 -113 l0 -75 -87 -3 c-56 -2 -88 1 -88 8 0 5 11 10 25
10 24 0 25 3 25 60 0 47 -3 60 -15 60 -11 0 -15 -12 -15 -50 0 -27 -4 -50 -10
-50 -9 0 -15 112 -6 121 2 2 42 2 88 -1 l83 -5 0 -75z m-595 25 c0 -30 -4 -55
-10 -55 -5 0 -10 23 -10 52 0 28 -3 48 -7 44 -5 -5 -8 -29 -8 -54 l0 -47 -68
-3 c-42 -2 -74 2 -83 9 -14 12 -20 90 -7 102 3 4 48 7 100 7 l93 0 0 -55z
m400 -5 l0 -60 -190 0 -190 0 0 60 0 60 190 0 190 0 0 -60z m-10 -100 c0 -5
-4 -10 -10 -10 -5 0 -10 5 -10 10 0 6 5 10 10 10 6 0 10 -4 10 -10z"/>
<path d="M4600 3850 c0 -47 3 -60 15 -60 12 0 15 13 15 60 0 47 -3 60 -15 60
-12 0 -15 -13 -15 -60z"/>
<path d="M4654 3886 c-8 -35 -1 -89 14 -94 9 -3 12 13 12 57 0 61 -14 82 -26
37z"/>
<path d="M2310 3913 c-70 -36 -111 -98 -117 -176 l-3 -52 20 54 c26 71 62 116
113 143 34 18 59 22 132 23 50 0 108 -3 130 -8 l40 -7 -40 21 c-30 17 -63 23
-130 26 -84 4 -94 3 -145 -24z"/>
<path d="M2694 3918 c98 -66 116 -78 122 -78 12 0 -29 40 -60 59 -17 10 -42
22 -56 25 -23 6 -23 5 -6 -6z"/>
<path d="M3374 3911 c-56 -24 -71 -100 -30 -148 l24 -28 118 3 c144 4 159 11
151 85 -4 46 -3 47 14 31 11 -10 19 -23 19 -31 0 -7 5 -13 10 -13 14 0 12 21
-3 41 -32 42 -89 62 -187 65 -52 2 -105 0 -116 -5z m199 -32 c32 -15 49 -52
38 -83 -13 -32 -28 -36 -130 -36 -104 0 -131 13 -131 65 0 50 28 65 122 65 42
0 88 -5 101 -11z"/>
<path d="M2520 3770 c-8 -5 -13 -10 -10 -10 166 -14 197 -21 262 -52 49 -25
63 -29 50 -15 -52 58 -252 109 -302 77z"/>
<path d="M3874 3749 c-18 -5 -39 -20 -48 -35 l-17 -25 40 27 c31 20 48 25 71
21 31 -7 42 6 14 17 -18 7 -19 7 -60 -5z"/>
<path d="M4030 3745 c0 -8 6 -15 14 -15 34 0 46 -29 46 -115 0 -73 3 -87 23
-111 22 -26 28 -27 144 -32 126 -5 273 4 273 17 0 5 -87 9 -192 10 -235 2
-228 -2 -228 128 0 76 -2 86 -25 108 -27 28 -55 33 -55 10z"/>
<path d="M3644 3712 c-70 -89 -74 -100 -74 -194 l0 -89 -51 -55 c-61 -64 -54
-71 14 -13 l47 41 0 66 c1 102 13 143 58 204 23 30 42 58 42 61 0 14 -16 5
-36 -21z"/>
<path d="M3874 3684 c-51 -25 -67 -80 -39 -133 40 -79 175 -39 175 51 0 38
-27 74 -67 89 -31 12 -32 11 -69 -7z m86 -34 c27 -27 25 -66 -5 -95 -29 -30
-45 -31 -79 -4 -35 28 -35 70 0 98 33 26 58 27 84 1z"/>
<path d="M3740 3641 c-24 -45 1 -151 35 -151 21 0 19 14 -5 35 -22 20 -27 83
-10 116 7 12 7 19 1 19 -6 0 -15 -9 -21 -19z"/>
<path d="M4598 3511 c-9 -90 -1 -87 -301 -95 -303 -8 -273 1 -416 -133 l-84
-78 2 -365 c1 -228 6 -369 12 -375 7 -7 10 113 8 360 l-2 370 64 59 c35 32 84
75 108 95 l44 36 263 5 c260 5 263 5 288 29 28 26 44 98 28 126 -7 14 -10 6
-14 -34z"/>
<path d="M1760 3451 c0 -41 -22 -51 -120 -51 -92 0 -133 -14 -175 -59 -52 -54
-53 -67 -54 -471 -1 -338 1 -378 17 -409 22 -44 60 -72 100 -74 34 -2 48 16
16 21 -52 8 -66 15 -84 45 -19 30 -20 52 -20 423 0 389 0 391 23 424 37 56 75
71 187 77 77 5 103 10 115 23 20 22 24 71 8 77 -9 3 -13 -6 -13 -26z"/>
<path d="M3590 3319 c-40 -24 -110 -89 -110 -102 0 -4 22 10 49 33 27 23 65
47 83 53 19 7 35 17 36 22 5 18 -23 15 -58 -6z"/>
<path d="M1652 3268 l3 -43 63 -3 c74 -4 83 13 12 23 -40 6 -50 11 -50 26 0
17 8 19 65 19 37 0 65 4 65 10 0 6 -34 10 -81 10 l-80 0 3 -42z"/>
<path d="M4234 3275 l-26 -26 4 -197 c4 -219 10 -245 71 -282 28 -18 51 -20
187 -20 123 0 151 -2 141 -12 -8 -9 -57 -13 -171 -13 l-159 0 -40 39 c-47 46
-71 94 -52 105 8 5 11 44 9 132 -3 121 -4 124 -26 127 -30 5 -52 -14 -52 -44
0 -18 -9 -27 -35 -39 -24 -10 -40 -25 -50 -49 -17 -40 -20 -162 -5 -171 6 -4
10 -97 10 -246 0 -132 4 -238 9 -235 4 3 10 141 13 308 l5 302 32 28 c17 15
43 28 57 28 22 0 25 -3 20 -22 -3 -13 -6 -38 -6 -56 0 -29 -5 -35 -37 -49
l-38 -16 28 -12 c15 -6 44 -35 63 -64 58 -86 73 -91 259 -91 186 0 212 9 245
83 17 36 20 66 20 227 0 167 -2 188 -20 218 -40 65 -65 72 -258 72 -172 0
-173 0 -198 -25z m258 -57 l3 -53 93 2 92 3 0 -170 c0 -107 -4 -178 -12 -195
l-11 -25 -173 0 -174 0 -32 29 -33 29 -3 200 c-3 174 -1 202 13 216 13 13 38
16 125 16 l109 0 3 -52z m71 45 c-23 -4 -41 -43 -29 -62 4 -5 2 -12 -4 -16 -6
-4 -10 11 -10 39 0 45 0 46 33 45 23 -1 26 -3 10 -6z m76 -37 c9 -10 9 -16 1
-21 -12 -7 -40 11 -40 26 0 14 26 10 39 -5z m-49 -21 c0 -9 -9 -15 -21 -15
-18 0 -19 2 -9 15 7 8 16 15 21 15 5 0 9 -7 9 -15z"/>
<path d="M4407 3091 c-42 -38 -48 -61 -29 -119 17 -52 59 -82 115 -82 29 0 46
8 75 34 32 30 37 40 37 80 0 64 -42 107 -112 113 -45 5 -53 2 -86 -26z m149
-25 c34 -34 43 -67 24 -96 -7 -11 -10 -5 -10 24 0 57 -30 86 -88 86 -37 0 -49
-5 -75 -32 -26 -28 -28 -29 -17 -8 20 39 52 60 94 60 30 0 45 -7 72 -34z"/>
<path d="M4020 3258 c-97 -59 -95 -46 -98 -478 -2 -206 0 -395 3 -419 5 -32
16 -54 40 -78 l33 -33 135 0 c80 0 138 4 142 10 4 6 -38 10 -120 10 -139 0
-172 10 -193 55 -9 19 -12 137 -12 427 0 381 1 402 20 433 25 40 106 85 154
85 20 0 36 5 36 10 0 6 -19 10 -43 10 -31 0 -58 -9 -97 -32z"/>
<path d="M538 2879 c-19 -11 -23 -45 -8 -69 12 -19 231 -22 237 -3 3 9 -25 13
-109 15 -105 3 -113 4 -113 23 0 19 7 20 108 20 79 0 107 3 107 13 0 15 -196
17 -222 1z"/>
<path d="M905 2851 l-110 -6 0 -65 0 -65 153 -3 c142 -2 153 -1 150 15 -4 21
-74 36 -99 20 -25 -15 -51 -1 -47 25 2 18 10 24 38 26 19 2 39 8 45 13 5 5 22
9 38 9 22 0 28 4 25 18 -4 20 -26 21 -193 13z"/>
<path d="M446 2765 c-19 -10 -21 -20 -24 -135 -2 -109 0 -126 15 -137 20 -16
280 -18 303 -3 12 7 16 40 21 142 4 73 4 135 2 138 -9 10 -297 5 -317 -5z
m264 -145 l0 -90 -125 0 -125 0 0 90 0 90 125 0 125 0 0 -90z"/>
<path d="M1147 2643 c-30 -35 -26 -78 14 -126 42 -50 49 -40 10 14 -17 23 -31
50 -31 59 0 19 30 50 48 50 7 0 12 5 12 10 0 16 -36 11 -53 -7z"/>
<path d="M4156 2631 c-16 -18 -15 -18 19 -7 38 12 47 26 17 26 -11 0 -26 -8
-36 -19z"/>
<path d="M4446 2552 c-36 -42 -80 -104 -98 -137 l-33 -60 -3 -168 c-3 -121 0
-172 8 -182 18 -22 372 -22 390 0 8 10 11 58 8 172 -4 137 -7 164 -26 207 -27
58 -139 219 -164 235 -15 9 -27 -1 -82 -67z m102 14 l23 -34 -35 -71 c-20 -39
-36 -73 -36 -76 0 -3 9 -5 19 -5 44 0 70 -30 39 -43 -7 -3 -3 -6 10 -6 17 -1
22 4 22 24 0 19 -8 29 -30 39 l-30 12 27 53 26 53 19 -23 c24 -31 75 -136 82
-171 l6 -28 -175 0 c-198 0 -188 -5 -155 82 23 61 90 138 120 138 34 0 23 -19
-25 -42 -25 -12 -45 -26 -45 -30 0 -11 7 -10 40 7 35 18 35 17 15 -32 -21 -50
-19 -72 10 -85 18 -8 31 -8 47 0 21 10 20 11 -14 11 -47 1 -49 16 -13 96 36
82 35 89 -2 95 l-33 5 26 33 c14 17 28 32 32 32 4 0 17 -15 30 -34z m110 -358
l-3 -53 -150 0 -150 0 -3 53 -3 52 156 0 156 0 -3 -52z m42 -127 c0 -21 -6
-44 -14 -50 -9 -8 -66 -11 -182 -9 l-169 3 -3 48 -3 47 185 0 186 0 0 -39z"/>
<path d="M4142 2468 c-17 -17 -15 -53 3 -68 20 -17 62 -5 70 20 14 44 -41 80
-73 48z m54 -19 c10 -17 -23 -46 -37 -32 -7 7 -9 19 -6 27 7 18 33 21 43 5z"/>
<path d="M518 2369 c-10 -5 -18 -20 -18 -33 0 -47 15 -50 247 -43 119 4 219 9
222 12 3 4 -1 10 -8 14 -18 11 -5 31 20 31 22 0 23 -4 9 -31 -11 -20 -4 -24
24 -13 23 9 20 40 -6 58 -19 13 -60 16 -248 16 -134 0 -232 -5 -242 -11z m420
-36 c3 -10 -42 -13 -202 -13 -189 0 -219 4 -199 24 4 3 94 5 202 4 145 -2 195
-6 199 -15z"/>
<path d="M620 2251 c0 -6 -17 -13 -37 -17 -21 -4 -51 -13 -66 -21 -36 -18
-105 -80 -119 -107 -6 -12 9 0 33 25 24 26 60 55 79 64 45 23 126 45 168 45
73 0 174 -78 224 -172 23 -45 31 -148 16 -215 -10 -45 8 -42 22 3 20 59 8 174
-23 226 -29 49 -109 128 -153 151 -36 18 -144 31 -144 18z"/>
<path d="M844 2247 c50 -31 118 -105 143 -156 38 -77 39 -183 3 -256 -34 -71
-34 -73 -6 -42 61 66 70 202 22 302 -37 73 -133 166 -171 164 -5 0 -1 -6 9
-12z"/>
<path d="M706 2216 c3 -8 17 -22 31 -31 13 -9 22 -19 19 -22 -3 -3 -12 0 -21
7 -8 7 -32 14 -52 17 -21 3 -40 9 -43 13 -3 5 -28 4 -55 -2 -40 -8 -60 -21
-106 -67 -60 -61 -79 -102 -79 -177 0 -105 121 -235 233 -249 66 -8 152 13
188 47 30 28 74 87 82 111 12 32 -11 17 -30 -20 -26 -50 -86 -91 -153 -103
-141 -27 -254 47 -282 183 -15 73 2 130 56 183 86 87 218 86 296 -3 96 -109
62 -262 -72 -317 -44 -19 -83 -20 -127 -5 -42 15 -51 5 -12 -15 46 -24 139
-21 192 7 86 46 133 151 110 251 -15 68 -81 160 -133 187 -45 23 -49 23 -42 5z"/>
<path d="M1318 2204 c-36 -19 -48 -62 -22 -81 10 -7 23 -12 28 -10 6 2 17 -10
26 -27 19 -38 64 -52 97 -30 23 14 32 54 13 54 -5 0 -10 -6 -10 -14 0 -7 -7
-19 -15 -26 -24 -20 -61 2 -75 44 -12 37 -23 45 -36 25 -5 -8 -10 -6 -16 5
-11 20 -4 33 36 57 36 22 14 25 -26 3z"/>
<path d="M1402 2209 c2 -6 8 -10 13 -10 5 0 11 4 13 10 2 6 -4 11 -13 11 -9 0
-15 -5 -13 -11z"/>
<path d="M860 2207 c0 -4 18 -30 39 -57 57 -73 84 -150 79 -230 -4 -64 -4 -64
10 -30 29 72 -16 216 -92 289 -20 19 -36 32 -36 28z"/>
<path d="M1460 2183 c0 -16 28 -36 40 -28 15 9 12 28 -4 22 -7 -3 -19 0 -25 6
-8 8 -11 8 -11 0z"/>
<path d="M1421 2124 c-6 -15 -9 -29 -6 -32 7 -7 34 29 35 46 0 21 -16 13 -29
-14z"/>
<path d="M4075 2115 c-25 -24 -32 -65 -19 -100 7 -18 55 -45 79 -45 26 0 75
55 75 85 0 35 -50 85 -85 85 -14 0 -37 -11 -50 -25z m87 -22 c22 -20 23 -51 1
-75 -20 -22 -41 -23 -65 -1 -22 20 -23 51 -1 75 20 22 41 23 65 1z"/>
<path d="M570 2098 c-52 -36 -72 -69 -72 -120 0 -149 166 -220 261 -113 51 58
50 135 0 200 -46 58 -131 72 -189 33z m134 -34 c28 -29 36 -87 16 -124 -25
-46 -107 -45 -157 2 -27 25 -39 19 -24 -10 14 -27 14 -45 -1 -40 -39 13 -23
134 24 173 42 35 105 35 142 -1z"/>
<path d="M3831 2064 c-12 -15 -21 -35 -21 -45 0 -26 35 -59 63 -59 54 0 80 78
37 112 -31 25 -55 23 -79 -8z m60 -4 c23 -13 25 -52 4 -70 -12 -10 -21 -10
-40 -2 -29 13 -33 43 -9 66 18 19 20 19 45 6z"/>
<path d="M360 1969 c0 -30 4 -60 9 -68 6 -9 7 9 4 50 -7 80 -13 89 -13 18z"/>
<path d="M1190 1985 c0 -18 19 -40 26 -32 4 4 0 15 -9 24 -9 10 -17 13 -17 8z"/>
<path d="M1047 1900 c-6 -47 -40 -120 -74 -161 -14 -16 -23 -32 -20 -35 10
-10 77 81 91 125 22 69 29 111 18 111 -5 0 -12 -18 -15 -40z"/>
<path d="M4453 1924 c-47 -24 -73 -71 -73 -132 l0 -51 -57 -33 c-73 -43 -93
-79 -93 -170 0 -39 4 -68 10 -68 6 0 10 29 10 68 1 37 7 78 14 91 7 13 40 38
72 55 l59 32 35 -24 c46 -32 127 -28 165 8 108 102 -12 291 -142 224z m104
-66 c51 -47 12 -133 -57 -126 -43 4 -75 45 -66 82 16 63 79 85 123 44z"/>
<path d="M4463 1834 c-15 -24 -15 -29 -2 -53 29 -52 99 -34 99 25 0 54 -67 73
-97 28z m65 -6 c30 -30 0 -78 -37 -58 -32 17 -21 70 14 70 6 0 16 -5 23 -12z"/>
<path d="M3920 1810 c-11 -11 -20 -29 -20 -40 0 -27 35 -60 63 -60 31 0 57 29
57 63 0 53 -61 76 -100 37z m78 -31 c4 -31 -20 -53 -48 -44 -14 4 -20 15 -20
34 0 35 8 43 40 39 19 -2 26 -10 28 -29z"/>
<path d="M400 1816 c0 -41 93 -145 169 -188 56 -33 57 -33 191 -33 82 0 136 4
137 10 2 6 -45 10 -125 10 -114 1 -132 4 -182 27 -68 31 -124 79 -162 137 -15
25 -28 42 -28 37z"/>
<path d="M871 1736 c-7 -9 -38 -25 -69 -37 -79 -30 -166 -28 -239 6 -64 29
-81 27 -30 -2 58 -35 106 -46 176 -41 64 5 160 42 176 68 11 18 -1 22 -14 6z"/>
<path d="M1110 1685 c-30 -24 -60 -54 -67 -67 -15 -27 -17 -98 -3 -98 6 0 10
16 10 36 0 30 10 46 62 100 34 35 59 66 57 69 -3 2 -29 -16 -59 -40z"/>
<path d="M4100 1669 c0 -6 9 -9 20 -6 24 6 27 -8 4 -17 -16 -6 -16 -8 0 -24
12 -14 16 -38 16 -90 0 -41 4 -72 10 -72 13 0 13 176 0 201 -11 20 -50 27 -50
8z"/>
<path d="M1176 1631 c-21 -23 -14 -56 15 -72 43 -23 92 44 57 79 -18 18 -53
14 -72 -7z m61 -17 c3 -8 -2 -23 -11 -32 -14 -15 -18 -15 -31 -1 -9 9 -13 23
-9 32 8 21 43 22 51 1z"/>
<path d="M4405 1636 c-50 -21 -55 -47 -55 -262 l0 -195 -32 3 -33 3 -3 103
c-3 97 -13 128 -26 80 -3 -13 -6 -64 -6 -114 0 -112 8 -127 70 -122 l45 3 5
221 c6 279 -2 264 152 264 89 0 108 3 108 15 0 12 -17 15 -97 15 -58 -1 -110
-6 -128 -14z"/>
<path d="M442 1608 c-15 -15 -16 -68 -1 -68 6 0 8 7 5 16 -9 23 13 46 37 38
14 -4 18 -2 15 7 -6 19 -40 23 -56 7z"/>
<path d="M3890 1592 c-5 -2 -10 -8 -10 -13 0 -5 41 -9 92 -9 74 0 89 2 79 13
-11 11 -134 18 -161 9z"/>
<path d="M3728 1564 c-5 -4 -8 -137 -8 -295 0 -264 1 -289 18 -301 15 -11 17
-24 12 -88 l-5 -75 -30 2 c-17 1 -38 12 -48 25 -16 19 -18 39 -15 185 2 123 0
164 -9 168 -20 7 -18 -333 2 -361 22 -33 68 -48 97 -33 l23 12 -22 -24 c-52
-58 -53 -151 -1 -202 26 -26 34 -29 69 -23 93 15 125 51 116 128 -4 30 -2 46
3 43 17 -10 12 -122 -5 -139 -9 -8 -44 -25 -78 -38 -43 -16 -55 -24 -40 -26
12 -2 37 1 55 6 18 5 58 7 89 4 50 -4 56 -7 66 -33 l11 -29 271 0 c171 0 271
4 271 10 0 6 -101 11 -267 12 -246 3 -268 4 -271 21 -3 16 11 17 192 17 168 0
196 2 196 15 0 8 -4 15 -10 15 -6 0 -10 67 -10 180 l0 180 25 0 c23 0 25 -3
25 -49 0 -27 6 -53 13 -59 7 -6 41 -12 76 -14 57 -3 66 -6 85 -31 24 -33 29
-108 8 -129 -11 -11 -12 -7 -7 23 18 96 -89 156 -164 93 -81 -68 -46 -197 57
-211 106 -14 190 129 132 225 -11 17 -24 32 -30 32 -6 0 -10 41 -10 105 l0
106 -430 -3 c-376 -3 -430 -1 -431 12 -1 8 -4 136 -8 283 -3 148 -9 265 -13
261z m862 -659 l0 -75 -60 0 -60 0 0 49 0 49 -42 4 c-24 3 -46 3 -50 1 -5 -2
-8 -82 -8 -177 l0 -173 -25 -11 c-14 -7 -71 -12 -126 -12 -91 0 -102 2 -126
24 -21 20 -26 33 -27 81 -1 48 2 59 23 76 28 23 79 25 109 3 31 -21 39 -11 13
15 -33 33 -104 29 -142 -8 -23 -24 -29 -38 -29 -75 0 -55 15 -90 44 -104 17
-8 6 -11 -51 -11 l-72 -1 1 95 c1 78 -2 99 -17 115 -10 11 -25 19 -34 18 -51
-4 -131 3 -131 12 0 6 82 9 224 7 231 -3 246 -2 246 14 0 5 -99 9 -235 9 -202
0 -235 2 -235 15 0 13 32 15 230 15 147 0 230 4 230 10 0 6 -83 10 -229 10
-187 0 -230 3 -234 14 -3 8 -3 17 0 20 4 3 111 6 240 6 149 0 233 4 233 10 0
6 -85 10 -235 10 -233 0 -236 0 -225 20 10 19 21 20 405 20 l395 0 0 -75z
m-760 -143 c0 -13 -32 -39 -56 -46 -11 -3 -25 -18 -31 -34 l-11 -27 -1 33 c-1
40 36 82 74 82 14 0 25 -4 25 -8z m745 -24 c24 -19 27 -26 22 -62 -3 -22 -1
-48 4 -57 13 -25 -24 -49 -74 -49 -82 0 -118 100 -58 161 35 35 68 37 106 7z
m-683 -20 c4 -33 -21 -84 -50 -100 -22 -11 -26 -10 -49 16 -13 15 -22 33 -20
40 3 10 94 65 109 66 4 0 8 -10 10 -22z m-124 -99 c14 -16 19 -29 14 -33 -15
-9 -42 22 -42 46 0 12 1 19 3 17 1 -2 12 -16 25 -30z"/>
<path d="M4500 895 c0 -45 1 -46 28 -43 24 3 27 7 27 43 0 36 -3 40 -27 43
-27 3 -28 2 -28 -43z m40 -1 c0 -16 -16 -19 -25 -4 -8 13 4 32 16 25 5 -4 9
-13 9 -21z"/>
<path d="M4318 874 c-2 -27 2 -53 9 -63 10 -13 12 -5 13 47 0 72 -16 84 -22
16z"/>
<path d="M3984 670 c1 -55 4 -100 7 -100 19 0 25 33 20 109 -9 123 -28 116
-27 -9z"/>
<path d="M4133 718 c-34 -17 -45 -85 -17 -112 23 -24 60 -19 83 10 26 34 27
68 1 94 -22 22 -35 24 -67 8z m52 -58 c0 -31 -3 -35 -27 -38 -26 -3 -28 -1
-28 31 0 40 7 49 35 45 16 -2 20 -10 20 -38z"/>
<path d="M4328 715 c-3 -6 -2 -35 2 -65 l6 -55 8 37 c8 36 -5 102 -16 83z"/>
<path d="M4257 674 c-11 -11 -8 -74 3 -74 6 0 13 7 16 15 7 18 -9 69 -19 59z"/>
<path d="M4462 1528 c-8 -8 -12 -58 -12 -159 0 -177 1 -179 93 -179 104 0 107
4 107 175 0 79 -3 150 -6 159 -5 13 -23 16 -88 16 -50 0 -87 -5 -94 -12z m123
-88 c25 -6 20 -8 -27 -9 -86 -2 -73 -31 13 -31 21 0 39 -4 39 -10 0 -5 -20
-10 -45 -10 -25 0 -45 -4 -45 -10 0 -5 18 -10 40 -10 29 0 40 -4 40 -15 0 -11
-11 -15 -40 -15 -22 0 -40 -4 -40 -10 0 -5 18 -10 40 -10 29 0 40 -4 40 -15 0
-11 -11 -15 -40 -15 -22 0 -40 -4 -40 -10 0 -5 21 -10 46 -10 72 0 51 -24 -24
-28 l-62 -3 0 100 c0 123 12 135 105 111z"/>
<path d="M4100 1455 c-2 -39 -4 -43 -7 -18 -6 47 -22 54 -110 51 l-78 -3 0
-38 c0 -30 -6 -44 -26 -60 -97 -79 -88 -206 19 -282 37 -25 53 -30 101 -30
106 1 181 73 181 176 0 48 -5 64 -34 107 -25 36 -36 63 -39 98 l-3 49 -4 -50z
m-80 -6 c0 -5 -13 -9 -30 -9 -32 0 -41 16 -12 22 21 5 42 -1 42 -13z m-130
-123 c-28 -39 -31 -49 -25 -85 12 -71 57 -109 145 -124 20 -3 19 -5 -8 -6 -50
-2 -109 33 -132 79 -31 61 -25 113 18 163 31 35 32 16 2 -27z m160 29 c37 -19
60 -62 60 -111 0 -51 -53 -104 -104 -104 -51 0 -90 23 -110 64 -20 42 -20 69
-1 106 30 58 94 77 155 45z m90 -97 c0 -45 -18 -85 -51 -113 l-24 -20 21 25
c47 55 57 109 29 165 l-15 30 20 -24 c13 -15 20 -38 20 -63z"/>
<path d="M3967 1283 c-13 -13 -7 -61 9 -67 22 -8 54 11 54 32 0 32 -43 56 -63
35z m43 -28 c0 -8 -7 -15 -15 -15 -8 0 -15 7 -15 15 0 8 7 15 15 15 8 0 15 -7
15 -15z"/>
<path d="M770 1476 c-14 -8 -40 -32 -58 -55 l-32 -40 -35 15 c-46 19 -71 18
-121 -7 -153 -73 -99 -309 70 -309 33 0 62 7 84 20 41 25 33 44 -9 23 -61 -31
-150 -11 -185 42 -41 62 -21 158 40 197 45 28 117 20 156 -17 36 -34 37 -41 8
-48 -15 -4 -28 0 -41 13 -45 50 -127 5 -127 -70 0 -84 94 -124 142 -60 15 21
30 30 50 30 15 0 28 5 28 11 0 7 -17 10 -45 7 -47 -3 -52 1 -34 34 9 16 17 19
45 13 29 -5 34 -3 34 13 0 11 -9 31 -21 46 l-21 27 26 37 c37 53 79 76 127 68
21 -3 39 -2 39 3 0 23 -81 28 -120 7z m-126 -175 c3 -4 0 -23 -7 -40 -10 -28
-10 -34 5 -45 17 -12 17 -14 0 -30 -24 -21 -60 -21 -84 1 -23 20 -24 80 -1
105 17 18 77 25 87 9z"/>
<path d="M1053 1459 c-55 -27 -109 -87 -124 -138 l-12 -41 -84 0 c-63 0 -84
-3 -81 -12 6 -16 46 -25 114 -27 l52 -1 11 -45 c14 -58 71 -121 119 -135 21
-5 108 -10 195 -10 146 0 158 1 155 18 -3 15 -19 18 -113 22 -146 7 -176 25
-177 110 -1 71 55 128 111 113 31 -8 25 -23 -9 -23 -67 0 -96 -88 -44 -129 36
-28 60 -26 95 8 29 30 40 83 19 96 -5 3 -10 19 -10 35 0 60 -90 96 -156 64
-50 -25 -75 -62 -81 -118 -5 -40 -9 -46 -29 -46 -33 0 -58 41 -50 82 20 101
118 176 216 165 27 -3 66 -15 88 -26 53 -27 127 -111 149 -170 19 -50 40 -64
35 -22 -5 41 -51 120 -93 162 -84 84 -206 113 -296 68z m195 -211 c18 -18 15
-43 -8 -63 -29 -26 -70 -7 -70 33 0 16 3 32 7 35 11 11 58 8 71 -5z"/>
<path d="M3453 1104 c-57 -53 -103 -102 -103 -110 0 -8 1 -14 3 -14 6 1 217
207 217 213 0 17 -21 1 -117 -89z"/>
<path d="M1430 1014 c0 -41 4 -63 10 -59 6 3 10 33 10 66 0 33 -4 59 -10 59
-6 0 -10 -29 -10 -66z"/>
<path d="M4543 1068 c2 -9 30 -13 92 -13 62 0 90 4 93 13 3 9 -20 12 -93 12
-73 0 -96 -3 -92 -12z"/>
<path d="M3498 993 c-57 -60 -68 -92 -69 -192 0 -94 5 -112 52 -172 26 -33 28
-44 31 -130 4 -119 22 -120 26 -2 l3 87 -43 61 c-39 55 -43 66 -46 130 -5 94
11 147 59 200 21 23 39 45 39 49 0 15 -18 4 -52 -31z"/>
<path d="M724 986 c-38 -7 -83 -20 -100 -29 -36 -19 -215 -211 -238 -254 -33
-65 -12 -163 42 -200 25 -16 51 -18 295 -16 242 1 270 3 300 20 18 11 62 63
104 124 40 57 80 114 89 127 14 18 15 28 6 47 -17 36 -37 31 -74 -18 -70 -91
-169 -205 -181 -209 -29 -11 -37 4 -37 76 0 71 -1 74 -46 132 -25 32 -50 70
-56 83 -22 58 64 81 305 81 119 0 147 3 147 14 0 8 -7 16 -15 19 -8 4 -117 8
-242 11 -169 4 -246 2 -299 -8z m41 -130 c37 -16 55 -42 55 -78 0 -40 -23 -60
-80 -69 -41 -6 -62 -16 -90 -44 -43 -42 -102 -49 -120 -16 -23 45 -12 74 58
149 60 65 71 72 105 72 21 0 53 -6 72 -14z m135 -197 l0 -79 -98 0 c-103 0
-122 7 -122 45 0 36 20 45 102 45 l78 0 0 29 c0 46 10 64 26 50 10 -8 14 -35
14 -90z"/>
<path d="M3310 975 c-10 -12 -10 -15 4 -15 9 0 16 7 16 15 0 8 -2 15 -4 15 -2
0 -9 -7 -16 -15z"/>
<path d="M2308 924 c-5 -4 -8 -99 -8 -212 0 -191 1 -207 22 -243 11 -21 27
-40 35 -43 18 -7 16 0 -9 35 -22 29 -23 42 -28 251 -3 121 -8 216 -12 212z"/>
<path d="M967 862 c-32 -35 -16 -93 29 -106 30 -9 74 28 74 63 0 54 -68 82
-103 43z m68 -18 c19 -20 16 -43 -7 -58 -21 -13 -51 2 -56 26 -3 16 23 48 38
48 5 0 16 -7 25 -16z"/>
<path d="M2390 870 c0 -6 37 -10 90 -10 53 0 90 4 90 10 0 6 -37 10 -90 10
-53 0 -90 -4 -90 -10z"/>
<path d="M2640 787 c0 -85 -18 -157 -38 -157 -5 0 -27 7 -48 16 -74 31 -154
-19 -154 -95 0 -36 32 -101 49 -101 21 0 21 22 0 39 -54 44 -12 141 60 141 78
-1 118 -83 70 -144 -23 -29 -54 -34 -67 -10 -12 22 -23 4 -15 -25 5 -20 10
-22 41 -16 62 12 104 83 82 140 -8 21 -6 32 13 56 18 25 23 47 25 119 2 51 -1
96 -7 107 -8 14 -10 -3 -11 -70z"/>
<path d="M2593 805 c0 -22 2 -30 4 -17 2 12 2 30 0 40 -3 9 -5 -1 -4 -23z"/>
<path d="M2470 791 c0 -13 29 -35 37 -28 7 8 -15 37 -28 37 -5 0 -9 -4 -9 -9z"/>
<path d="M2515 791 c-6 -11 9 -23 19 -14 9 9 7 23 -3 23 -6 0 -12 -4 -16 -9z"/>
<path d="M1301 768 c-52 -36 -74 -71 -79 -130 -5 -68 14 -117 62 -153 52 -40
109 -44 172 -12 58 30 83 62 56 72 -19 7 -28 4 -25 -7 4 -11 -15 -10 -21 1 -3
5 1 11 9 15 11 4 13 14 8 36 -8 43 13 83 38 69 27 -14 25 9 -3 51 -35 51 -71
73 -130 78 -44 3 -59 0 -87 -20z m163 -19 c14 -11 26 -26 26 -33 0 -15 -48
-61 -74 -70 -17 -6 -18 -14 -12 -91 7 -97 4 -100 -74 -69 -102 41 -120 178
-34 254 29 25 43 30 88 30 39 0 60 -6 80 -21z m-4 -139 c0 -5 -4 -10 -10 -10
-5 0 -10 5 -10 10 0 6 5 10 10 10 6 0 10 -4 10 -10z"/>
<path d="M1494 608 c3 -13 6 -29 6 -35 0 -25 39 -14 46 13 7 28 -7 44 -40 44
-14 0 -17 -5 -12 -22z"/>
<path d="M3700 589 c0 -17 37 -56 46 -47 3 3 -6 19 -20 34 -18 21 -25 24 -26
13z"/>
<path d="M1683 455 c-25 -24 -42 -49 -38 -54 3 -6 25 9 49 34 37 39 48 45 84
45 23 0 42 5 42 10 0 6 -21 10 -46 10 -42 0 -51 -5 -91 -45z"/>
<path d="M1606 384 c-9 -23 -8 -24 17 -24 32 0 40 10 19 26 -22 18 -29 17 -36
-2z"/>
</g>
</svg>